<svg xmlns="http://www.w3.org/2000/svg" viewBox="0 0 715.39 663.31">
	<g id="secondaryboxes">
		<path d="M813.64,390.56Q807.3,380.15,800,370.21a27,27,0,0,0-1.77-2.23c-34.34-39.34-96.79-58.48-161.59-44.5-24.95,5.38-60.82,18-99,34.91-8.8,3.89-17.73,8-26.67,12.33a31.47,31.47,0,0,1-19,2.73l-.62-.11c-21.08-3.93-31.75-27.6-21.64-46.51,6.57-12.28,9.31-25.79,7.17-39.26-.15-1.05-.35-2.1-.58-3.16-5.72-26.53-29.26-45.63-59.24-51.71a100.94,100.94,0,0,0-47.51,2.13q-11.54,3.25-22.52,7C187,295.75,113.72,419.81,147.48,576.32c37.39,173.29,224.28,262.61,421.88,220s316-147.67,278.58-321A272.17,272.17,0,0,0,813.64,390.56ZM314.45,347.39c23.39-21.18,55.82-23.5,72.43-5.17S398,392.6,374.61,413.79s-55.82,23.5-72.43,5.17S291.07,368.58,314.45,347.39ZM373.58,690.2a28,28,0,1,1,21.47-33.27A28,28,0,0,1,373.58,690.2ZM476,728.48a38,38,0,1,1,29.14-45.16A38,38,0,0,1,476,728.48Zm126.1-27.2a38,38,0,1,1,29.14-45.16A38,38,0,0,1,602.05,701.28Zm107.89-64.2a36,36,0,1,1,27.6-42.78A36,36,0,0,1,709.94,637.08Zm35.67-119.2a27,27,0,1,1,20.7-32.09A27,27,0,0,1,745.61,517.88Z" transform="translate(-139.41 -143.53)" />
	</g>
	<g id="Layer_3" data-name="Layer 3">
		<path d="M364.1,590.05s32.26-10.65,51-69.12,82.47-19.78,81.05,12.5S459.84,623.46,364.1,590.05Z" transform="translate(-139.41 -143.53)" />
		<path d="M768.73,252.46,516.61,498.19a35.67,35.67,0,0,1-14.9,8.95,80.3,80.3,0,0,0-19-16.78,27,27,0,0,1,.8-3A36.57,36.57,0,0,1,492,473.69L748,209.12c25.77-26.64,88.37-72.79,96.58-64.63C854.14,153.93,796.93,225,768.73,252.46Z" transform="translate(-139.41 -143.53)" />
	</g>
</svg>
