<svg xmlns="http://www.w3.org/2000/svg" viewBox="0 0 743.51 743.5">
	<g id="secondaryboxes">
		<path d="M505.25,134.77c-205.31,0-371.75,166.44-371.75,371.75a371.75,371.75,0,0,0,607,287.85C823.83,726.21,877,622.58,877,506.52,877,301.21,710.57,134.77,505.25,134.77ZM740.5,729.3A324,324,0,0,1,181.25,506.52c0-178.94,145.06-324,324-324s324,145.06,324,324A322.86,322.86,0,0,1,740.5,729.3Z" transform="translate(-133.5 -134.77)" />
	</g>
	<g id="primaryboxes">
		<path d="M618.31,351.77A113.31,113.31,0,1,1,505,238.47,113.31,113.31,0,0,1,618.31,351.77Z" transform="translate(-133.5 -134.77)" />
		<path d="M740.5,582.2v84.31a65.83,65.83,0,0,1-18.53,46,303,303,0,0,1-445.39-12.41,65.86,65.86,0,0,1-16.08-43.3V582.2c0-57.48,47-104.51,104.51-104.51h24.43A138.58,138.58,0,0,1,444.93,489a150.7,150.7,0,0,0,120.14,0,138.66,138.66,0,0,1,55.5-11.3H636C693.47,477.69,740.5,524.72,740.5,582.2Z" transform="translate(-133.5 -134.77)" />
	</g>
</svg>
