<svg xmlns="http://www.w3.org/2000/svg" viewBox="0 0 908 908">
	<g id="secondaryboxes">
		<path d="M500,46C249.26,46,46,249.26,46,500S249.26,954,500,954,954,750.74,954,500,750.74,46,500,46Zm0,636q-21.13,0-41.53-2c-65.21,35.29-133.74,46.84-161,50.24a4.41,4.41,0,0,1-3.82-7.33,214.41,214.41,0,0,0,42.74-74C253.7,612.23,199,548.49,199,476c0-113.77,134.76-206,301-206s301,92.23,301,206S666.24,682,500,682Z" transform="translate(-46 -46)" />
	</g>
	<g id="primaryboxes">
		<circle cx="454" cy="454" r="36" />
		<circle cx="322" cy="454" r="36" />
		<circle cx="586" cy="454" r="36" />
	</g>
</svg>
