<svg xmlns="http://www.w3.org/2000/svg" 
viewBox="0 0 912.27 912"
class="theme-icon"
id="darkIcon"
>
	<g id="secondaryboxes">
		<path class="fa-secondary" fill="currentColor" d="M93.25,458l8.94,27.52a2.89,2.89,0,0,0,2.75,2h28.93a2.89,2.89,0,0,1,1.7,5.23l-23.41,17a2.9,2.9,0,0,0-1,3.23l8.94,27.52a2.89,2.89,0,0,1-4.44,3.23l-23.41-17a2.91,2.91,0,0,0-3.4,0l-23.41,17A2.89,2.89,0,0,1,61,540.5L69.89,513a2.9,2.9,0,0,0-1-3.23l-23.41-17a2.89,2.89,0,0,1,1.7-5.23H76.06a2.89,2.89,0,0,0,2.75-2L87.75,458A2.89,2.89,0,0,1,93.25,458Z" transform="translate(-44.23 -43.5)" />
		<path class="fa-secondary" fill="currentColor" d="M502.67,234l8.95,27.52a2.88,2.88,0,0,0,2.74,2H543.3a2.89,2.89,0,0,1,1.7,5.23l-23.41,17a2.89,2.89,0,0,0-1.05,3.23l8.94,27.52a2.89,2.89,0,0,1-4.45,3.23l-23.41-17a2.87,2.87,0,0,0-3.39,0l-23.41,17a2.89,2.89,0,0,1-4.45-3.23L479.31,289a2.87,2.87,0,0,0-1.05-3.23l-23.41-17a2.89,2.89,0,0,1,1.7-5.23h28.94a2.9,2.9,0,0,0,2.75-2L497.18,234A2.89,2.89,0,0,1,502.67,234Z" transform="translate(-44.23 -43.5)" />
		<path class="fa-secondary" fill="currentColor" d="M512.67,649l9,27.52a2.88,2.88,0,0,0,2.74,2H553.3a2.89,2.89,0,0,1,1.7,5.23l-23.41,17a2.89,2.89,0,0,0-1.05,3.23l8.94,27.52a2.89,2.89,0,0,1-4.45,3.23l-23.41-17a2.87,2.87,0,0,0-3.39,0l-23.41,17a2.89,2.89,0,0,1-4.45-3.23L489.31,704a2.87,2.87,0,0,0-1.05-3.23l-23.41-17a2.89,2.89,0,0,1,1.7-5.23h28.94a2.9,2.9,0,0,0,2.75-2L507.18,649A2.89,2.89,0,0,1,512.67,649Z" transform="translate(-44.23 -43.5)" />
		<path class="fa-secondary" fill="currentColor" d="M247.67,274l9,27.52a2.88,2.88,0,0,0,2.74,2H288.3a2.89,2.89,0,0,1,1.7,5.23l-23.41,17a2.89,2.89,0,0,0-1,3.23l8.94,27.52a2.89,2.89,0,0,1-4.45,3.23l-23.41-17a2.87,2.87,0,0,0-3.39,0l-23.41,17a2.89,2.89,0,0,1-4.45-3.23L224.31,329a2.87,2.87,0,0,0-1.05-3.23l-23.41-17a2.89,2.89,0,0,1,1.7-5.23h28.94a2.9,2.9,0,0,0,2.75-2L242.18,274A2.89,2.89,0,0,1,247.67,274Z" transform="translate(-44.23 -43.5)" />
		<path class="fa-secondary" fill="currentColor" d="M254.67,605l9,27.52a2.88,2.88,0,0,0,2.74,2H295.3a2.89,2.89,0,0,1,1.7,5.23l-23.41,17a2.89,2.89,0,0,0-1,3.23l8.94,27.52a2.89,2.89,0,0,1-4.45,3.23l-23.41-17a2.87,2.87,0,0,0-3.39,0l-23.41,17a2.89,2.89,0,0,1-4.45-3.23L231.31,660a2.87,2.87,0,0,0-1.05-3.23l-23.41-17a2.89,2.89,0,0,1,1.7-5.23h28.94a2.9,2.9,0,0,0,2.75-2L249.18,605A2.89,2.89,0,0,1,254.67,605Z" transform="translate(-44.23 -43.5)" />
		<path class="fa-secondary" fill="currentColor" d="M443.67,432l8.95,27.52a2.88,2.88,0,0,0,2.74,2H484.3a2.89,2.89,0,0,1,1.7,5.23l-23.41,17a2.89,2.89,0,0,0-1,3.23l8.94,27.52a2.89,2.89,0,0,1-4.45,3.23l-23.41-17a2.87,2.87,0,0,0-3.39,0l-23.41,17a2.89,2.89,0,0,1-4.45-3.23L420.31,487a2.87,2.87,0,0,0-1.05-3.23l-23.41-17a2.89,2.89,0,0,1,1.7-5.23h28.94a2.9,2.9,0,0,0,2.75-2L438.18,432A2.89,2.89,0,0,1,443.67,432Z" transform="translate(-44.23 -43.5)" />
	</g>
	<g id="primaryboxes">
		<path class="fa-primary" fill="currentColor" d="M956.23,483.53C965.33,748.24,746.11,966,481.47,955.11a453.61,453.61,0,0,1-169.39-40.24c-19.37-8.8-12-38,9.19-36.4l4,.27c231.2,14.53,414.38-165.47,403.81-396.88C719.88,280.18,553.46,119.5,349.5,119.5h-1.42c-26.91.1-33.9-37.19-8.73-46.71A455.06,455.06,0,0,1,500.5,43.5C747,43.5,947.81,239.09,956.23,483.53Z" transform="translate(-44.23 -43.5)" />
	</g>
</svg>
