<svg xmlns="http://www.w3.org/2000/svg" 
viewBox="0 0 940.96 711.84"
class="theme-icon"
id="hackerIcon"
>
	<g id="secondaryboxes">
		<path class="fa-primary" fill="currentColor" d="M971,675.22c0,79.95-56.46,181.17-280.28,181.17C398.72,856.39,30,664.65,30,509.05c0-95,107.62-109.85,190.76-114a91.1,91.1,0,0,0-7.46,36.24c0,89.46,202.48,225,433.56,224.82C749.17,656.11,827,617.7,827,548.49c0-5.33,0-9.65-8.55-50.08l.13-.06C916.58,541,971,612.35,971,675.22Z" transform="translate(-30 -144.55)" />
	</g>
	<g id="primaryboxes">
		<path class="fa-secondary" fill="currentColor" d="M809,468.49c0,73.62-89.49,86.37-151.33,86.37v-.27c-240.44,0-419.89-149.44-419.89-195-.29-7.35-2.53-1.33,48-143.85,14.92-41.57,34.26-61.79,63.92-61.79,30.89,0,55.35,27.68,88.43,27.68,34.31,0,42.66-37.07,71.44-37.07,30.89,0,135.34,40.49,183.28,65,61.81,30.89,69.27,46.86,77.76,82.05C810.56,465.14,809.38,456.1,809,468.49Z" transform="translate(-30 -144.55)" />
	</g>
</svg>
