<svg xmlns="http://www.w3.org/2000/svg" viewBox="0 0 262.66 262.73">
	<g id="Layer_1" data-name="Layer 1">
		<path d="M348.75,129.67a54,54,0,0,0-30.41-30.41c-21-8.29-71-6.43-94.3-6.43s-73.25-1.93-94.31,6.43a54,54,0,0,0-30.41,30.41c-8.28,21-6.43,71.05-6.43,94.33S91,297.26,99.32,318.33a54,54,0,0,0,30.41,30.41c21,8.29,71,6.43,94.31,6.43s73.24,1.93,94.3-6.43a54,54,0,0,0,30.41-30.41c8.35-21,6.43-71,6.43-94.33S357.1,150.74,348.75,129.67ZM224.2,306H224a81.9,81.9,0,1,1,.2,0ZM328.51,138.56a19.11,19.11,0,0,1-19,19.18h-.09a19.14,19.14,0,1,1,19.15-19.15Z" transform="translate(-92.71 -92.64)" />
	</g>
	<g id="Layer_2" data-name="Layer 2">
		<path d="M277.36,224v0A53.34,53.34,0,1,1,224,170.66,53.34,53.34,0,0,1,277.36,224Z" transform="translate(-92.71 -92.64)" />
	</g>
</svg>
