<svg xmlns="http://www.w3.org/2000/svg" viewBox="0 0 783.74 783.74">
	<g id="secondaryboxes">
		<circle cx="391.87" cy="391.87" r="207.45" class="fa-primary" fill="currentColor"/>
	</g>
	<g id="primaryboxes">
		<path class="fa-secondary" fill="currentColor" d="M572.08,256.67A12.51,12.51,0,0,1,558.91,274a445,445,0,0,0-117.86-.22,12.52,12.52,0,0,1-13.13-17.37l60.52-140.72a12.53,12.53,0,0,1,23,0Z" transform="translate(-108.13 -108.13)" />
		<path class="fa-secondary" fill="currentColor" d="M572.81,741.62,511.46,884.29a12.53,12.53,0,0,1-23,0L427.19,741.86a12.51,12.51,0,0,1,13.14-17.36,445.2,445.2,0,0,0,119.3-.23A12.51,12.51,0,0,1,572.81,741.62Z" transform="translate(-108.13 -108.13)" />
		<path class="fa-secondary" fill="currentColor" d="M378.9,277a12.52,12.52,0,0,1,3,21.58,444.16,444.16,0,0,0-83.5,83.19,12.52,12.52,0,0,1-21.56-3l-56.72-142.3a12.53,12.53,0,0,1,16.28-16.28Z" transform="translate(-108.13 -108.13)" />
		<path class="fa-secondary" fill="currentColor" d="M722.34,619.37l57.5,144.26a12.53,12.53,0,0,1-16.28,16.28l-144-57.4a12.51,12.51,0,0,1-3-21.57,444.74,444.74,0,0,0,84.2-84.53A12.51,12.51,0,0,1,722.34,619.37Z" transform="translate(-108.13 -108.13)" />
		<path class="fa-secondary" fill="currentColor" d="M723,378.9a12.52,12.52,0,0,1-21.58,3,444.16,444.16,0,0,0-83.19-83.5,12.52,12.52,0,0,1,3-21.56l142.3-56.72a12.53,12.53,0,0,1,16.28,16.28Z" transform="translate(-108.13 -108.13)" />
		<path class="fa-secondary" fill="currentColor" d="M380.63,722.34l-144.26,57.5a12.53,12.53,0,0,1-16.28-16.28l57.4-144a12.51,12.51,0,0,1,21.57-3,444.74,444.74,0,0,0,84.53,84.2A12.51,12.51,0,0,1,380.63,722.34Z" transform="translate(-108.13 -108.13)" />
		<path class="fa-secondary" fill="currentColor" d="M743.33,572.08A12.51,12.51,0,0,1,726,558.91a445,445,0,0,0,.22-117.86,12.52,12.52,0,0,1,17.37-13.13l140.72,60.52a12.53,12.53,0,0,1,0,23Z" transform="translate(-108.13 -108.13)" />
		<path class="fa-secondary" fill="currentColor" d="M258.38,572.81,115.71,511.46a12.53,12.53,0,0,1,0-23l142.43-61.25a12.51,12.51,0,0,1,17.36,13.14,445.2,445.2,0,0,0,.23,119.3A12.51,12.51,0,0,1,258.38,572.81Z" transform="translate(-108.13 -108.13)" />
	</g>
</svg>
