<svg xmlns="http://www.w3.org/2000/svg" viewBox="0 0 818.5 787.5">
	<g id="primaryboxes">
		<path d="M881.52,878H573.91c-15.73,0-28.48-9-28.48-20V767H848.54c33.67,0,61-21.24,61-47.44V177.94c0-26.2-27.29-47.44-61-47.44H152.46c-33.67,0-61,21.24-61,47.44V719.56c0,26.2,27.29,47.44,61,47.44H454.29v91c0,11-12.75,20-28.48,20H120.48a35.36,35.36,0,0,0-20.14,5.86C95.19,887.48,92,892.48,92,898c0,11,12.75,20,28.48,20h761c15.73,0,28.48-9,28.48-20S897.25,878,881.52,878ZM165.46,728.09c-13.23,0-24-8.34-24-18.64V188.05c0-10.3,10.73-18.64,24-18.64H835.54c13.23,0,24,8.34,24,18.64v521.4c0,10.3-10.73,18.64-24,18.64Z" transform="translate(-91.5 -130.5)" />
	</g>
	<g id="secondaryboxes">
		<path d="M382,544.31v45.74a8.26,8.26,0,0,1-12.69,7L205.13,492.71a8.28,8.28,0,0,1-3.83-7V439.22a8.28,8.28,0,0,1,3.83-7L369.25,327.73a8.26,8.26,0,0,1,12.7,7v45.94a8.23,8.23,0,0,1-3.93,7L268.35,455.24a8.27,8.27,0,0,0,0,14.06l109.71,68A8.25,8.25,0,0,1,382,544.31Z" transform="translate(-91.5 -130.5)" />
		<path d="M397.21,657l148.16-439.5a9.51,9.51,0,0,1,9-6.47h39.06a9.51,9.51,0,0,1,9,12.52L455,663a9.5,9.5,0,0,1-9,6.48h-39.8A9.49,9.49,0,0,1,397.21,657Z" transform="translate(-91.5 -130.5)" />
		<path d="M795.84,492.71,631.71,597a8.26,8.26,0,0,1-12.69-7V544.31a8.25,8.25,0,0,1,3.91-7l109.71-68a8.27,8.27,0,0,0,0-14.06L623,387.67a8.25,8.25,0,0,1-3.93-7V334.7a8.26,8.26,0,0,1,12.7-7L795.85,432.25a8.27,8.27,0,0,1,3.82,7v46.52A8.26,8.26,0,0,1,795.84,492.71Z" transform="translate(-91.5 -130.5)" />
	</g>
</svg>
