<svg xmlns="http://www.w3.org/2000/svg" viewBox="0 0 846 846">
	<defs>
		<style>
			.cls-1{fill:#0071bc;}.cls-2{fill:#f7931e;}.cls-3{fill:none;stroke:#f7931e;stroke-miterlimit:10;stroke-width:55px;}.cls-4{fill:#4d4d4d;}
		</style>
	</defs>
	<g id="Layer_4" data-name="Layer 4">
		<path class="cls-1" d="M905.5,499.5l-21-4-61-24-46-22-40-6-46-16-30,39-29,23-25-12h-37l-37,1-27-21-13,4-76,14-52,14-32,22-80,18-73-49-87,19c0-224.23,181.77-406,406-406S905.5,275.27,905.5,499.5Z" transform="translate(-76 -76)" />
		<circle class="cls-2" cx="422" cy="423" r="213" />
		<circle class="cls-3" cx="422" cy="423" r="314" />
		<path class="cls-4" d="M905.5,499.5c0,224.23-181.77,406-406,406s-406-181.77-406-406l87-19,73,49,80-18,32-22,52-14,76-14,13-4,27,21,37-1h37l25,12,29-23,30-39,46,16,40,6,46,22,61,24Z" transform="translate(-76 -76)" />
	</g>
	<g id="Layer_3" data-name="Layer 3">
		<path d="M888.75,334.34A424.34,424.34,0,1,0,922,499,421.61,421.61,0,0,0,888.75,334.34ZM859.28,651.19A391,391,0,0,1,108.16,510.06c13.66-4.76,33.35-11,50.41-14.81a3.7,3.7,0,0,1,4.49,3.55c1.29,78,28.76,150.14,30,153.36l47.27,110.61a5.13,5.13,0,0,0,9.62-3.55l-15.3-49.12a129.57,129.57,0,0,1-4.19-17.78l-8.81-57.86a86,86,0,0,1,1.15-35.28,2.07,2.07,0,0,1,3.76-.6c11.7,18.86,36.37,54.42,42.92,118.51a4.63,4.63,0,0,0,4.59,4.16,4.69,4.69,0,0,0,1.27-.18,4.61,4.61,0,0,0,3.32-4.84C273,651.36,262,609.9,251.82,584.2s-19.44-35.62-21.75-37.43a13,13,0,0,0-18.06,2l-.47.58a80.88,80.88,0,0,0-5.26,7.29,3.7,3.7,0,0,1-6.74-1.37,386,386,0,0,1-5.45-46.51,4.15,4.15,0,0,1,6.48-3.63,168.05,168.05,0,0,1,20.56,16.34C238.46,537.68,254.35,542,261,542h.48L293,539.7a46.57,46.57,0,0,0,24.88-9.45s41.38-26.74,50.87-27.27c1.87-.1,3.8-.24,5.76-.41a4.35,4.35,0,0,1,4.11,6.57C359.84,540.24,335.3,583.52,325,612c-10.42,28.84-16,56.15-16.3,67.36a6.1,6.1,0,0,0,12,1.66c9-35.06,39.37-115.79,72.6-148.86a94,94,0,0,0,7.64-8.58,2.85,2.85,0,0,1,5.07,1.29c4.39,27.1,10.72,63.88,18.39,101.9,18.87,93.6,40,146.62,58.79,172.8a7.29,7.29,0,0,0,11.91-8.41C470.09,755,444.18,605.48,429,502.9a11.39,11.39,0,0,1,8.74-12.79c16.41-3.64,41.33-13.08,53.69-19.5a19.5,19.5,0,0,1,10.86-2.26c12,1.22,18.47,11.49,21.62,18.89v0c2.46,7.9,5.68,19.15,8.09,27.74a43.33,43.33,0,0,1,1.46,16.6A77.64,77.64,0,0,0,535.9,562a58.85,58.85,0,0,0,7.16,16C557.84,602.82,562,624,561,647c-.59,13.6-5.78,75-6.15,95.18v.12a6.25,6.25,0,0,0,12.32,1.46c6.28-25.59,32.48-113,46.76-159.66a249.89,249.89,0,0,1,23.94-54.21l15.51-26.19,31-53.87a23.33,23.33,0,0,1,35.54-5.94c8.73,7.59,58.07,54.11,62.68,59.19,9.82,10.82,23.13,30.59,34.64,46.4A43.58,43.58,0,0,1,820,596.57c-35.27,62.43-72.68,137-84.51,161.9a8.22,8.22,0,0,0,4.44,11.2,8.43,8.43,0,0,0,10.57-4.43c22.84-48.64,103.76-186.84,137.88-230A387.11,387.11,0,0,1,859.28,651.19Zm-296.65-153a9.65,9.65,0,0,1,6.76-6.37l3-.77a57.28,57.28,0,0,1,45.42,7.22,8.34,8.34,0,0,1,3,10.63c-8.52,17.73-17.72,42-17.72,42-2.52,7.5-8.84,27.17-10.56,40.33,0,0-12.92,55.47-17.37,71.32a.48.48,0,0,1-.94-.15c.64-22.42-.83-74.84-13.13-95.35,0,0-12.23-18.34-7-40C554,527,562.56,498.41,562.63,498.19Zm208-33.32a1.88,1.88,0,0,1,1-2.87,17.1,17.1,0,0,1,13.62,1.4c9.13,5.16,22.18,12.67,31.27,17.92A75.74,75.74,0,0,0,839,489.89l12.43,2.57a53.81,53.81,0,0,1,15.43,5.74,54.5,54.5,0,0,1,9.17,6.45,3.34,3.34,0,0,1,.23,4.76c-8.73,9.44-20.49,26.78-33.53,48.16a6,6,0,0,1-10.15.15C817.35,534.23,788.69,490.81,770.62,464.87Zm85.76,2.35-.55-.05A80.69,80.69,0,0,1,819.13,454c-10.82-7.26-24.27-15-35-19a27.76,27.76,0,0,0-24.86,2.63,5.14,5.14,0,0,1-6.77-1.06l-3.62-4.42a56.12,56.12,0,0,0-13.08-11.81c-9.25-5.93-24.21-11.75-43.77-6.25-11,3.1-40.26,43.89-50.81,59.43a7.13,7.13,0,0,1-9.85,1.93l-2.19-1.45a75.12,75.12,0,0,0-77.36-3.73c-.5.27-1,.54-1.4.79a4.65,4.65,0,0,1-5.89-1c-5.7-6.72-19-21.85-28.67-24.67a61,61,0,0,0-39.63,2.18c-13.95,5.58-43.69,17-54,17a9.53,9.53,0,0,1-1.61-.12,37.38,37.38,0,0,0-24.7,4c-7,3.85-17.1,8.08-28.63,8.72-17.71,1-65.23,32.57-65.23,32.57a20.41,20.41,0,0,1-11,4.17L261.15,516c-3-.57-12-3.89-22.28-13.45a197.59,197.59,0,0,0-36.57-26.9,145.81,145.81,0,0,0-17.59-8.72A13.06,13.06,0,0,0,180,466h-.44c-20.17.67-50.86,9.74-71.23,16.52A391.12,391.12,0,0,1,859.28,346.81a387.73,387.73,0,0,1,30.49,138.8A49,49,0,0,0,856.38,467.22Z" transform="translate(-76 -76)" />
	</g>
</svg>
